<svg width="24" height="24" viewBox="0 0 24 24" fill="none" xmlns="http://www.w3.org/2000/svg">
<path d="M9.84859 15.5498C11.2883 15.4338 12.7345 15.4338 14.1742 15.5498C14.9582 15.5955 15.7385 15.6936 16.5101 15.8434C18.1797 16.1815 19.2698 16.7331 19.737 17.6228C20.0878 18.3171 20.0878 19.1437 19.737 19.8381C19.2698 20.7278 18.223 21.3149 16.4928 21.6174C15.7218 21.7729 14.9413 21.874 14.1569 21.9199C13.4302 22 12.7035 22 11.9681 22H10.6445C10.3677 21.9644 10.0995 21.9466 9.83993 21.9466C9.0555 21.9063 8.27489 21.8082 7.5041 21.653C5.8344 21.3327 4.74434 20.7633 4.27718 19.8737C4.09683 19.529 4.00176 19.144 4.00023 18.7527C3.99658 18.3589 4.08878 17.9705 4.26853 17.6228C4.72704 16.7331 5.8171 16.1548 7.5041 15.8434C8.27828 15.6915 9.06156 15.5934 9.84859 15.5498ZM12.0027 2C14.903 2 17.2541 4.41782 17.2541 7.40036C17.2541 10.3829 14.903 12.8007 12.0027 12.8007C9.10253 12.8007 6.75144 10.3829 6.75144 7.40036C6.75144 4.41782 9.10253 2 12.0027 2Z" fill="#151522"/>
</svg>
